<?xml version="1.0" standalone="no"?>
<!DOCTYPE svg PUBLIC "-//W3C//DTD SVG 1.1//EN" "http://www.w3.org/Graphics/SVG/1.1/DTD/svg11.dtd" >
<svg xmlns="http://www.w3.org/2000/svg">
<metadata>
This is a custom SVG webfont generated by Font Squirrel.
Copyright   :  1987 1991 1993 2002 Adobe Systems Incorporated All rights reserved
Designer    : Paul Renner
Foundry URL : httpwwwadobecomtype
</metadata>
<defs>
<font id="FuturaStdHeavyOblique" horiz-adv-x="1183" >
<font-face units-per-em="2048" ascent="1690" descent="-358" />
<missing-glyph horiz-adv-x="591" />
<glyph unicode=" "  horiz-adv-x="591" />
<glyph unicode="&#x09;" horiz-adv-x="591" />
<glyph unicode="&#xa0;" horiz-adv-x="591" />
<glyph unicode="!" horiz-adv-x="665" d="M172 143.5q12 75.5 73.5 128t137.5 52.5t121 -52.5t32.5 -128t-74 -130t-137 -54.5t-120.5 54.5t-33 130zM256 444l174 1100h291l-174 -1100h-291z" />
<glyph unicode="&#x22;" horiz-adv-x="999" d="M354 872l70 672h246l-144 -672h-172zM748 872l69 672h246l-143 -672h-172z" />
<glyph unicode="#" d="M84 354l37 232h231l90 254h-196l37 231h239l146 416h217l-146 -416h207l146 416h215l-146 -416h164l-37 -231h-201l-90 -254h193l-37 -232h-242l-123 -354h-217l123 354h-207l-122 -354h-218l123 354h-186zM569 586h209l94 254h-213z" />
<glyph unicode="$" d="M158 293l209 176q80 -219 251 -219q88 0 153 59.5t79 147.5q8 18 2 39.5t-7 36t-14.5 31t-20.5 26.5t-25.5 23.5t-31 21.5t-36 20.5t-37.5 19.5l-39 19l-41 21q-127 66 -189.5 151.5t-37.5 243.5q27 172 139.5 289t282.5 147l28 191h150l-31 -193q199 -25 299 -176 l-168 -194q-78 125 -209 124q-70 0 -129 -46t-69 -115q-6 -37 3 -65t41.5 -54.5t54 -39.5t78 -42t77.5 -39q127 -66 190.5 -158t36.5 -258q-29 -180 -149.5 -313t-299.5 -168l-32 -205h-150l31 195q-156 18 -245 89t-144 214z" />
<glyph unicode="%" horiz-adv-x="1581" d="M203 1219q27 160 147.5 263t278 103t246 -103.5t61.5 -262.5q-25 -158 -145.5 -261.5t-278.5 -103.5t-246 103.5t-63 261.5zM305 8l1081 1589l127 -69l-1079 -1591zM406 1219q-12 -76 23.5 -137.5t109 -61.5t128 61.5t66.5 137t-22.5 138t-108.5 62.5q-72 0 -127 -62 t-69 -138zM887 324q25 160 145.5 263t278 103t246 -103.5t63.5 -262.5q-25 -158 -145.5 -261.5t-278.5 -103.5t-246 103.5t-63 261.5zM1089.5 323.5q-12.5 -75.5 23.5 -137t109.5 -61.5t128 61.5t67 137t-23.5 138t-108 62.5q-74 0 -129 -62.5t-67.5 -138z" />
<glyph unicode="&#x26;" horiz-adv-x="1437" d="M133 410q39 252 287 401l102 63q-98 174 -73 328q27 170 156.5 276.5t297.5 106.5q170 0 265.5 -105.5t68.5 -275.5q-33 -207 -313 -373l172 -276l186 199l164 -179l-203 -223l211 -352h-367l-100 156q-258 -197 -473 -197q-195 0 -303.5 128t-77.5 323zM440 436 q-12 -76 33 -141.5t119 -65.5q43 0 93 25t76.5 44t80.5 64l-189 322q-59 -39 -95 -67.5t-73 -78t-45 -102.5zM737 1227q-10 -61 19 -115l57 -104l57 43q100 74 113 168q10 59 -15.5 105t-80.5 46q-59 0 -99.5 -42t-50.5 -101z" />
<glyph unicode="'" horiz-adv-x="606" d="M354 872l70 672h246l-144 -672h-172z" />
<glyph unicode="(" horiz-adv-x="555" d="M258 676q98 608 371 1028l157 -119q-227 -377 -315 -921q-86 -557 23 -920l-195 -121q-143 406 -41 1053z" />
<glyph unicode=")" horiz-adv-x="555" d="M-20 -256q229 371 313 920q88 537 -21 921l195 119q72 -213 79 -502t-36 -526q-45 -281 -138 -560.5t-235 -492.5z" />
<glyph unicode="*" horiz-adv-x="854" d="M287 1102l178 102l-148 103l95 137l145 -107l27 207h176l-37 -207l176 107l51 -137l-182 -103l150 -102l-95 -137l-141 106l-29 -203h-176l39 203l-176 -106z" />
<glyph unicode="+" d="M131 403l39 242h403l64 404h242l-64 -404h404l-39 -242h-404l-63 -403h-242l64 403h-404z" />
<glyph unicode="," horiz-adv-x="591" d="M6 -303l322 622l256 -28l-391 -617z" />
<glyph unicode="-" horiz-adv-x="675" d="M174 539l37 235h500l-37 -235h-500z" />
<glyph unicode="." horiz-adv-x="591" d="M137.5 143.5q12.5 75.5 73.5 128t137 52.5t121 -52.5t32.5 -128t-73.5 -130t-137 -54.5t-121 54.5t-32.5 130z" />
<glyph unicode="/" horiz-adv-x="1103" d="M35 -260l1069 1997l188 -72l-1071 -1997z" />
<glyph unicode="0" d="M145.5 559.5q4.5 108.5 16.5 210.5q16 104 50 212t93.5 218.5t134 194.5t180 137t224.5 53t208 -53t135 -138t73.5 -193.5t22.5 -218.5t-15 -212q-16 -104 -51 -210.5t-94.5 -216.5t-134.5 -193.5t-180.5 -137t-222 -53.5t-205.5 52t-135 138.5t-75 194t-24.5 216z M444 622q-2 -83 8.5 -179.5t55.5 -159t119 -62.5q76 0 140 62.5t105 159t65 178t36 153.5q10 72 12 154t-8 177t-55 156.5t-121 61.5q-74 0 -138.5 -61.5t-105.5 -156.5t-65.5 -177t-34.5 -154q-11 -69 -13 -152z" />
<glyph unicode="1" d="M500 0l202 1282h-202l41 262h503l-243 -1544h-301z" />
<glyph unicode="2" d="M57 0l471 496q240 248 326 368q90 125 102 209q14 92 -27.5 171t-131.5 79q-94 0 -158 -83t-74 -181h-319q53 233 207.5 379.5t384.5 146.5q213 0 333.5 -143.5t88.5 -354.5q-23 -154 -113 -281.5t-244 -279.5l-270 -264h506l-41 -262h-1041z" />
<glyph unicode="3" d="M135 446h303q-10 -96 39 -160.5t145.5 -64.5t164 75t81.5 173q16 98 -32 176t-146 70l-55 -4l35 215h32q94 0 153.5 57t76.5 156q12 82 -26 139t-120 57q-76 0 -129 -58t-69 -136h-287q53 203 196.5 323.5t348.5 120.5q201 0 303 -118.5t72 -317.5q-14 -96 -65.5 -184 t-133.5 -138q92 -43 125 -150.5t14 -225.5q-37 -223 -201.5 -357.5t-390.5 -134.5q-211 0 -334 139t-100 348z" />
<glyph unicode="4" d="M49 272l23 136l872 1165h275l-168 -1059h163l-38 -242h-164l-43 -272h-283l43 272h-680zM438 514h330l96 614h-4z" />
<glyph unicode="5" d="M92 164l131 258q49 -90 131 -145.5t185 -55.5q123 0 214 90t111 215q20 127 -53.5 217.5t-200.5 90.5q-141 0 -262 -101h-47l293 811h672l-41 -262h-459l-90 -235l78 4q219 0 333.5 -157t79.5 -380q-39 -248 -220 -401.5t-429 -153.5q-279 0 -426 205z" />
<glyph unicode="6" d="M119 483q39 236 270 516l506 609l197 -160l-390 -449l5 -4q53 20 124 21q205 0 307.5 -151.5t69.5 -360.5q-39 -238 -216 -391.5t-414 -153.5q-231 0 -363.5 147.5t-95.5 376.5zM414 492q-18 -111 37 -199t163.5 -88t189.5 88t99.5 198.5t-36 199.5t-163 89t-190.5 -87.5 t-100 -200.5z" />
<glyph unicode="7" d="M115 100l823 1182h-647l41 262h1104l-1096 -1585z" />
<glyph unicode="8" d="M158 412q23 139 102.5 242.5t208.5 150.5q-86 47 -125 139t-22 201q31 195 179 317.5t343 122.5q193 0 303 -123t80 -317q-16 -106 -86 -199.5t-172 -140.5q115 -47 163 -151.5t25 -241.5q-33 -203 -201 -328t-370 -125q-205 0 -333 126t-95 327zM465 444.5 q-14 -92.5 29 -164t131 -71.5t154.5 72.5t78.5 162.5q14 92 -28 165t-130 73t-154.5 -72.5t-80.5 -165zM596 1145q-12 -84 25.5 -150.5t117.5 -66.5t140.5 66.5t72.5 150.5q12 82 -26.5 148.5t-118.5 66.5t-139.5 -66.5t-71.5 -148.5z" />
<glyph unicode="9" d="M217 1038q39 240 217 393.5t416 153.5q231 0 362 -147.5t95 -378.5q-37 -238 -271 -516l-506 -609l-196 162l389 449l-4 4q-57 -23 -123 -23q-205 0 -308.5 151.5t-70.5 360.5zM522 1051q-18 -111 36 -200t162.5 -89t190.5 88t101 201q18 111 -36 199.5t-162.5 88.5 t-191 -87.5t-100.5 -200.5z" />
<glyph unicode=":" horiz-adv-x="591" d="M137.5 143.5q12.5 75.5 73.5 128t137 52.5t121 -52.5t32.5 -128t-73.5 -130t-137 -54.5t-121 54.5t-32.5 130zM254 880.5q12 75.5 73.5 128t137.5 52.5t121 -52.5t32.5 -128t-74 -130t-137 -54.5t-120.5 54.5t-33 130z" />
<glyph unicode=";" horiz-adv-x="591" d="M-14 -303l321 622l256 -28l-391 -617zM336 880.5q12 75.5 73.5 128t137.5 52.5t121 -52.5t32.5 -128t-74 -130t-137 -54.5t-120.5 54.5t-33 130z" />
<glyph unicode="&#x3c;" d="M131 401l39 246l1108 373l-41 -258l-702 -236l-3 -4l629 -235l-41 -258z" />
<glyph unicode="=" d="M94 162l37 241h1049l-37 -241h-1049zM170 645l39 242h1048l-38 -242h-1049z" />
<glyph unicode="&#x3e;" d="M72 29l41 258l702 235l2 4l-629 236l41 258l990 -373l-39 -246z" />
<glyph unicode="?" horiz-adv-x="997" d="M242 1143q20 184 169.5 313t336.5 129q188 0 293.5 -126t76.5 -314q-25 -152 -135.5 -270.5t-261.5 -151.5l-47 -197h-287l64 408q33 -8 73 -8q109 0 195 61.5t102 167.5q12 68 -17.5 124t-95 56t-108.5 -50t-55 -118l-4 -24h-299zM291 143.5q12 75.5 73.5 128 t137.5 52.5t121 -52.5t32.5 -128t-74 -130t-137 -54.5t-120.5 54.5t-33 130z" />
<glyph unicode="@" horiz-adv-x="1996" d="M375 772q55 346 318 579.5t593 233.5q285 0 453 -180q197 -201 153 -475q-41 -270 -196 -438q-170 -188 -344 -181q-90 4 -90 127q-145 -127 -299 -127q-137 0 -223.5 113t-59.5 270q31 197 171 344.5t325 147.5q162 0 247 -148l50 129h145l-186 -532q-43 -123 -35 -154 q6 -23 35 -22q74 0 160.5 123t111.5 274q41 256 -86 404.5t-367 148.5q-258 0 -458.5 -183.5t-241.5 -453.5q-45 -279 115.5 -458t429.5 -179q250 0 383 88l135 -123q-141 -72 -265 -106.5t-309 -34.5q-334 0 -527 232.5t-138 580.5zM858 709q-16 -96 23 -159t131 -63 q238 0 317 275q35 123 -12 185.5t-158 62.5q-119 0 -200 -89t-101 -212z" />
<glyph unicode="A" horiz-adv-x="1384" d="M-18 0l854 1585h233l334 -1585h-322l-67 326h-537l-178 -326h-317zM602 571h367l-103 562h-4z" />
<glyph unicode="B" horiz-adv-x="1132" d="M111 0l243 1544h375q225 0 329 -99q77 -74 77 -217q0 -48 -9 -104q-14 -92 -61 -174t-121 -125q84 -16 136.5 -77.5t66.5 -141.5q7 -40 7 -82t-7 -86q-35 -217 -188.5 -327.5t-374.5 -110.5h-473zM451 242h63q70 0 118 7t97 27.5t79 67.5t42 119q3 22 3 41q0 32 -8 57 q-13 41 -37 62.5t-69 33t-79.5 13.5t-92.5 2h-49zM555 901h37q117 0 174 44t76 159q5 30 5 55q0 67 -36 99q-49 44 -154 45h-39z" />
<glyph unicode="C" horiz-adv-x="1230" d="M158 760q53 338 307 581.5t586 243.5q178 0 329 -90l-57 -360q-51 76 -135 119.5t-180 43.5q-207 0 -355.5 -159.5t-183.5 -372.5q-8 -51 -8 -98q0 -147 77 -266q101 -157 302 -156q94 0 192 45t176 119l-57 -359q-209 -92 -365 -92q-319 0 -499 238q-140 185 -141 423 q1 68 12 140z" />
<glyph unicode="D" horiz-adv-x="1323" d="M111 0l243 1544h430q332 0 505 -220q132 -168 133 -403q0 -72 -13 -151q-53 -330 -298 -550t-572 -220h-428zM453 262h49q514 0 596 510q11 69 10 128q0 382 -444 382h-50z" />
<glyph unicode="E" horiz-adv-x="999" d="M111 0l243 1544h799l-41 -262h-498l-53 -340h479l-41 -262h-479l-67 -418h497l-41 -262h-798z" />
<glyph unicode="F" horiz-adv-x="948" d="M111 0l243 1544h766l-41 -262h-465l-53 -340h436l-41 -262h-436l-108 -680h-301z" />
<glyph unicode="G" horiz-adv-x="1513" d="M158 766q53 340 301 579.5t583 239.5q199 0 344.5 -96t206.5 -272l-288 -144q-31 109 -114 177.5t-200 68.5q-203 0 -345 -170t-177 -383q-9 -58 -9 -113q0 -72 15 -141q27 -121 117 -204t227 -83q139 0 260 104.5t150 245.5h-328l39 246h666l-7 -39q-27 -168 -93 -313 t-168.5 -261t-250 -182.5t-321.5 -66.5q-219 0 -371.5 113.5t-212.5 296.5q-37 115 -37 242q0 76 13 155z" />
<glyph unicode="H" horiz-adv-x="1380" d="M111 0l243 1544h301l-96 -608h557l96 608h301l-243 -1544h-301l108 690h-557l-108 -690h-301z" />
<glyph unicode="I" horiz-adv-x="520" d="M111 0l243 1544h301l-243 -1544h-301z" />
<glyph unicode="J" horiz-adv-x="796" d="M-29 104l228 222q6 -37 35.5 -69t64.5 -32q25 0 45.5 8.5t35.5 24.5t28.5 34.5t23.5 46.5t17.5 48.5t13.5 53t9 50t7 47t6 37.5l152 969h301l-160 -1020q-16 -92 -27.5 -142t-44 -119.5t-81.5 -129.5q-147 -174 -373 -174q-80 0 -155 41t-126 104z" />
<glyph unicode="K" horiz-adv-x="1269" d="M111 0l243 1544h301l-102 -651h4l580 651h370l-698 -713l487 -831h-387l-383 694h-4l-110 -694h-301z" />
<glyph unicode="L" horiz-adv-x="823" d="M111 0l243 1544h301l-202 -1282h426l-41 -262h-727z" />
<glyph unicode="M" horiz-adv-x="1712" d="M23 0l512 1585h213l219 -1018l526 1018h217l-20 -1585h-304l29 958h-4l-506 -978h-104l-183 978h-4l-288 -958h-303z" />
<glyph unicode="N" horiz-adv-x="1554" d="M111 0l251 1585h218l641 -1079h4l164 1038h301l-248 -1575h-217l-643 1080h-4l-166 -1049h-301z" />
<glyph unicode="O" horiz-adv-x="1601" d="M160 774q55 350 304 580.5t589 230.5t515 -230q133 -175 133 -420q0 -77 -13 -161q-55 -350 -301 -582.5t-592 -232.5q-229 0 -388 109.5t-222 293.5q-39 116 -39 249q0 79 14 163zM467 603q14 -93 50 -171t121 -127t204 -49t218 48t161.5 129t101.5 170t55 183 q7 47 8 91q0 144 -77 260q-100 152 -303 151q-205 0 -353.5 -151.5t-179.5 -350.5q-12 -53 -12 -107q0 -38 6 -76z" />
<glyph unicode="P" horiz-adv-x="1081" d="M111 0l243 1544h410q468 0 468 -367q0 -52 -9 -112q-39 -244 -184.5 -365.5t-385.5 -121.5h-149l-92 -578h-301zM543 827h61q145 0 218 49.5t96 190.5q5 34 5 62q0 86 -47 120q-62 45 -206 45h-54z" />
<glyph unicode="Q" horiz-adv-x="1601" d="M160 774q51 332 307 571.5t585.5 239.5t508.5 -239q138 -186 138 -428q0 -69 -11 -144q-51 -324 -271 -559l170 -250l-307 -31l-86 129q-172 -104 -399 -104q-332 0 -510 239q-137 184 -138 426q1 72 13 150zM467 756q-7 -50 -7 -96q0 -147 74 -261q97 -150 306 -149 q84 0 170 51l-207 293l315 24l113 -155q113 119 147 319q7 45 7 89q0 146 -80 269q-104 159 -299 158q-207 0 -355.5 -163.5t-183.5 -378.5z" />
<glyph unicode="R" horiz-adv-x="1142" d="M111 0l243 1544h408q242 0 361 -113q90 -86 91 -243q0 -51 -10 -109q-25 -158 -128 -280.5t-255 -147.5l334 -651h-364l-277 623h-4l-98 -623h-301zM543 834h39q137 0 218 52t103 185q5 32 5 58q0 84 -49 121q-65 48 -202 48h-41z" />
<glyph unicode="S" horiz-adv-x="1077" d="M88 260l225 191q18 -94 84 -160t158 -66q90 0 155.5 65.5t80.5 158.5q3 19 2 35q0 32 -10 59q-15 41 -48 67.5t-69.5 45t-81.5 36.5q-16 6 -23 8q-158 70 -230 163q-53 68 -53 176q0 39 7 83q31 195 181 329t343 134q106 0 221 -48t172 -124l-174 -209q-74 127 -211 127 q-74 0 -139.5 -50t-77.5 -124q-2 -12 -2 -23q0 -38 22 -68q28 -40 78 -65.5t111 -52t120.5 -62.5t106.5 -84t68 -129q11 -45 11 -97q0 -42 -7 -89q-37 -236 -197.5 -382t-394.5 -146q-297 0 -428 301z" />
<glyph unicode="T" horiz-adv-x="923" d="M203 1282l41 262h923l-41 -262h-311l-203 -1282h-301l203 1282h-311z" />
<glyph unicode="U" horiz-adv-x="1351" d="M201 621l145 923h301l-135 -864q-14 -90 -17 -155q-1 -13 -1 -26q0 -54 10 -116q12 -78 64.5 -120t142.5 -42t155.5 42t102.5 120t55 142.5t33 154.5l135 864h301l-145 -923q-47 -303 -215 -482.5t-463 -179.5t-406 179q-78 126 -77 313q0 79 14 170z" />
<glyph unicode="V" horiz-adv-x="1308" d="M215 1544h324l206 -1040h5l507 1040h324l-850 -1585h-176z" />
<glyph unicode="W" horiz-adv-x="2000" d="M215 1544h315l146 -1052h4l477 1073h178l150 -1073h4l469 1052h315l-770 -1575h-221l-147 1010h-5l-450 -1010h-221z" />
<glyph unicode="X" horiz-adv-x="1275" d="M-16 0l622 817l-301 727h357l169 -479l302 479h356l-543 -727l346 -817h-350l-221 565l-385 -565h-352z" />
<glyph unicode="Y" horiz-adv-x="1202" d="M211 1544h350l187 -536l378 536h353l-619 -835l-112 -709h-302l113 709z" />
<glyph unicode="Z" horiz-adv-x="1177" d="M10 0l883 1282h-576l41 262h1053l-881 -1282h641l-41 -262h-1120z" />
<glyph unicode="[" horiz-adv-x="589" d="M63 -186l304 1917h405l-31 -187h-188l-244 -1544h189l-29 -186h-406z" />
<glyph unicode="\" horiz-adv-x="1103" d="M336 1737h229l479 -1737h-229z" />
<glyph unicode="]" horiz-adv-x="589" d="M63 -186l29 186h189l243 1544h-188l31 187h405l-303 -1917h-406z" />
<glyph unicode="^" d="M174 674l533 870h254l262 -870h-265l-167 579l-353 -579h-264z" />
<glyph unicode="_" horiz-adv-x="1024" d="M-41 -256l16 102h1024l-16 -102h-1024z" />
<glyph unicode="`" horiz-adv-x="778" d="M393 1458l230 127l190 -344l-160 -90z" />
<glyph unicode="a" horiz-adv-x="1157" d="M111 508q35 213 185 371.5t357 158.5q174 0 260 -127l17 95h282l-159 -1006h-283l14 92h-4q-53 -59 -133 -92t-160 -33q-211 0 -311 162q-75 120 -74 271q0 52 9 108zM401 504q-4 -26 -4 -51q0 -79 40 -145q52 -87 156.5 -87t186.5 87t99 196q4 26 3 50q0 79 -40 144 q-53 86 -157.5 86t-186 -85.5t-97.5 -194.5z" />
<glyph unicode="b" horiz-adv-x="1157" d="M102 0l275 1737h287l-129 -824q125 125 296 125q205 0 308 -160q76 -120 76 -267q0 -50 -9 -103q-35 -219 -186.5 -380t-364.5 -161q-80 0 -147.5 34t-99.5 93h-5l-14 -94h-287zM440 504q-4 -26 -4 -51q0 -79 40 -145q52 -87 156.5 -87t185.5 87t97 196q4 26 4 50 q0 79 -39 144q-52 86 -157 86t-186 -85.5t-97 -194.5z" />
<glyph unicode="c" horiz-adv-x="862" d="M111 500q35 227 208 382.5t398 155.5q133 0 223 -63l-43 -277q-82 98 -195 99q-115 0 -198.5 -90.5t-104.5 -208.5q-4 -29 -4 -56q0 -87 45 -150q59 -83 178 -83q115 0 218 96l-45 -276q-121 -61 -259 -62q-219 0 -338 156q-92 119 -92 276q0 49 9 101z" />
<glyph unicode="d" horiz-adv-x="1157" d="M111 508q35 213 185 371.5t357 158.5q80 0 149.5 -32.5t106.5 -92.5h4l129 824h287l-274 -1737h-287l14 94h-4q-53 -59 -132 -93t-159 -34q-211 0 -311 162q-75 120 -74 271q0 52 9 108zM401 504q-4 -26 -4 -51q0 -79 40 -145q52 -87 156.5 -87t185.5 87t98 196 q4 26 3 50q0 79 -39 144q-52 86 -156.5 86t-186 -85.5t-97.5 -194.5z" />
<glyph unicode="e" horiz-adv-x="1026" d="M109 494q39 240 188 392t385 152t332 -152q70 -110 69 -267q0 -60 -10 -127l-6 -35h-661q-5 -35 -6 -68q0 -69 24 -123q35 -80 137 -80q127 0 215 138l258 -43q-76 -150 -212 -232t-296 -82q-229 0 -342 147q-85 110 -85 270q1 52 10 110zM442 635h383q2 84 -39 143.5 t-118 59.5q-82 0 -141.5 -58.5t-84.5 -144.5z" />
<glyph unicode="f" horiz-adv-x="620" d="M113 0l120 764h-96l39 242h96l47 294q33 203 144.5 332t306.5 129q74 0 133 -32l-41 -256q-66 35 -110 34q-27 0 -48.5 -8t-36 -27.5t-24.5 -34t-18 -46.5l-12 -45q-3 -12 -9 -48t-6 -38l-39 -254h229l-38 -242h-230l-121 -764h-286z" />
<glyph unicode="g" horiz-adv-x="1150" d="M35 -119h303q-2 -80 44 -128t126 -48q57 0 102 21.5t70 49t44 79t26.5 86t17.5 94.5l10 65h-4q-57 -61 -137 -97t-160 -36q-211 0 -307 156q-71 114 -71 262q0 53 10 111q37 221 188.5 381.5t364.5 160.5q76 0 140 -34.5t99 -94.5h4l17 97h286l-149 -945 q-96 -598 -582 -598q-197 0 -330 113q-115 98 -115 255q0 24 3 50zM401 502q-5 -28 -4 -55q0 -76 39 -140q53 -86 157.5 -86t184.5 86t99 195q4 26 3 50q0 79 -39 145q-52 87 -156.5 87t-186 -86.5t-97.5 -195.5z" />
<glyph unicode="h" horiz-adv-x="1105" d="M102 0l275 1737h287l-129 -815h4q104 117 280 116q294 0 294 -298q0 -57 -11 -126l-98 -614h-287l84 532q8 45 10 63.5t6 60.5t-3 61.5t-19.5 45t-39 36t-65.5 10.5q-59 0 -102 -28.5t-66.5 -85t-34 -95.5t-20.5 -102l-78 -498h-287z" />
<glyph unicode="i" horiz-adv-x="518" d="M117 0l159 1006h287l-160 -1006h-286zM315 1427q12 70 70.5 120t128.5 50t112 -50q32 -39 32 -89q0 -15 -3 -31q-10 -70 -67.5 -120t-128.5 -50q-70 0 -112 50q-34 40 -34 93q0 13 2 27z" />
<glyph unicode="j" horiz-adv-x="518" d="M33 -537l243 1543h287l-244 -1543h-286zM315 1427q12 70 70.5 120t128.5 50t112 -50q32 -39 32 -89q0 -15 -3 -31q-10 -70 -67.5 -120t-128.5 -50q-70 0 -112 50q-34 40 -34 93q0 13 2 27z" />
<glyph unicode="k" horiz-adv-x="1077" d="M102 0l275 1737h287l-175 -1100h5l360 369h373l-494 -443l367 -563h-377l-262 428h-4l-68 -428h-287z" />
<glyph unicode="l" horiz-adv-x="489" d="M102 0l275 1737h287l-275 -1737h-287z" />
<glyph unicode="m" horiz-adv-x="1642" d="M102 0l160 1006h287l-14 -91h4q104 123 264 123q190 0 264 -157q57 74 143 115.5t174 41.5q265 0 266 -283q0 -58 -12 -128l-98 -627h-287l84 528q13 92 13 150q0 42 -7 65q-23 66 -96 66q-55 0 -94 -32t-61.5 -90t-30.5 -96t-19 -97l-77 -494h-287l80 510q17 108 17 170 q0 33 -5 53q-20 76 -100 76q-45 0 -81 -24.5t-54.5 -53.5t-35 -84t-20.5 -77.5t-12 -75.5l-78 -494h-287z" />
<glyph unicode="n" horiz-adv-x="1105" d="M102 0l160 1006h287l-14 -93h4q102 125 280 125q294 0 294 -298q0 -57 -11 -126l-98 -614h-287l84 532q8 45 10 63.5t6 60.5t-3 61.5t-19.5 45t-39 36t-65.5 10.5q-59 0 -102 -28.5t-66.5 -85t-34 -95.5t-20.5 -102l-78 -498h-287z" />
<glyph unicode="o" horiz-adv-x="1122" d="M113 502q37 236 208 386t404 150t357 -150q95 -116 96 -283q0 -50 -9 -103q-37 -236 -207.5 -385.5t-406.5 -149.5t-357 150q-94 115 -94 280q0 50 9 105zM403 502q-5 -28 -4 -55q0 -76 39 -140q53 -86 157.5 -86t184.5 86t99 195q5 29 4 56q0 77 -38 140 q-52 86 -158.5 86t-186 -85.5t-97.5 -196.5z" />
<glyph unicode="p" horiz-adv-x="1157" d="M18 -537l244 1543h287l-14 -93q125 125 296 125q205 0 308 -160q76 -120 76 -267q0 -50 -9 -103q-35 -219 -186.5 -380t-364.5 -161q-80 0 -147.5 34t-99.5 93h-5l-98 -631h-287zM440 504q-4 -26 -4 -51q0 -79 40 -145q52 -87 156.5 -87t185.5 87t97 196q4 26 4 50 q0 79 -39 144q-52 86 -157 86t-186 -85.5t-97 -194.5z" />
<glyph unicode="q" horiz-adv-x="1157" d="M111 508q35 213 185 371.5t357 158.5q80 0 149.5 -32.5t106.5 -92.5h4l15 93h286l-243 -1543h-287l98 631h-4q-53 -59 -132 -93t-159 -34q-211 0 -311 162q-75 120 -74 271q0 52 9 108zM401 504q-4 -26 -4 -51q0 -79 40 -145q52 -87 156.5 -87t185.5 87t98 196q4 26 3 50 q0 79 -39 144q-52 86 -156.5 86t-186 -85.5t-97.5 -194.5z" />
<glyph unicode="r" horiz-adv-x="751" d="M102 0l160 1006h287l-17 -105h5q113 137 270 137q59 0 115 -24l-76 -266q-47 37 -113 36q-72 0 -123 -28.5t-79.5 -80.5t-44 -102.5t-25.5 -119.5l-72 -453h-287z" />
<glyph unicode="s" horiz-adv-x="839" d="M61 135l160 170q86 -117 195 -117q49 0 86 30t45 79q4 25 -2 44t-28.5 35.5t-38 25t-53.5 23.5t-54 24q-88 41 -132 98q-32 42 -32 111q0 26 4 55q23 141 126 233t245 92q86 0 172 -26.5t135 -77.5l-150 -166q-61 70 -139 70q-37 0 -69.5 -26t-38.5 -60q-4 -20 4 -38 t29.5 -31t41 -22.5t54 -23.5t55.5 -25q88 -41 134 -105q33 -46 33 -120q0 -30 -5 -63q-25 -162 -155 -259.5t-294 -97.5q-215 0 -328 168z" />
<glyph unicode="t" horiz-adv-x="561" d="M137 0l121 764h-98l39 242h98l53 340h287l-53 -340h176l-39 -242h-176l-121 -764h-287z" />
<glyph unicode="u" horiz-adv-x="1095" d="M162 414l94 592h287l-86 -545q-8 -50 -8 -91q0 -161 131 -161q164 0 204 252l86 545h287l-94 -592q-72 -446 -522 -447q-389 0 -389 333q0 53 10 114z" />
<glyph unicode="v" horiz-adv-x="999" d="M123 1006h315l146 -568l297 568h313l-627 -1026h-147z" />
<glyph unicode="w" horiz-adv-x="1603" d="M123 1006h313l117 -580l342 612h137l150 -620l307 588h311l-631 -1026h-145l-117 612l-338 -612h-147z" />
<glyph unicode="x" horiz-adv-x="1124" d="M-37 0l516 547l-272 459h348l145 -261l201 261h352l-430 -459l338 -547h-352l-203 350l-287 -350h-356z" />
<glyph unicode="y" horiz-adv-x="1064" d="M-25 -537l441 691l-293 852h326l149 -572l348 572h320l-975 -1543h-316z" />
<glyph unicode="z" horiz-adv-x="985" d="M-2 0l635 764h-434l39 242h907l-631 -764h477l-39 -242h-954z" />
<glyph unicode="{" horiz-adv-x="796" d="M238 614l22 150q164 68 203 309l59 373q16 113 90 191.5t127 78.5h189l-31 -186h-82q-31 0 -48 -20.5t-22.5 -40t-13.5 -66.5l-57 -363q-16 -106 -66.5 -191t-83 -113.5t-61.5 -47.5q14 -10 30.5 -28.5t42 -64.5t30.5 -105.5t-3 -151.5l-57 -363q-12 -51 -6 -89t49 -38 h82l-29 -186h-188q-53 0 -101.5 79t-29.5 191l59 373q35 241 -104 309z" />
<glyph unicode="|" horiz-adv-x="899" d="M463 -610v2445h227v-2445h-227z" />
<glyph unicode="}" horiz-adv-x="796" d="M88 -338l29 186h82q31 0 48 20.5t23 42t13 64.5l57 363q16 106 66.5 191t84 114t60.5 45q-137 113 -100 352l57 363q14 51 7 89t-50 38h-82l31 186h188q53 0 100.5 -78.5t30.5 -191.5l-59 -373q-39 -242 104 -309l-22 -150q-168 -68 -203 -309l-59 -373 q-18 -113 -91 -191.5t-127 -78.5h-188z" />
<glyph unicode="~" d="M145 487q16 18 71.5 85t90.5 104t91.5 72.5t107.5 35.5q96 0 213 -104q96 -96 176 -96q31 0 70 52t65 107l174 -184q-45 -61 -71.5 -95t-77.5 -89.5t-103.5 -82t-103.5 -26.5q-20 0 -42 4t-37 9.5t-35.5 17.5t-30 18.5t-32 21.5l-28.5 19q-20 14 -63 47t-70 47.5 t-51 14.5q-53 0 -140 -158z" />
<glyph unicode="&#xa2;" d="M338 776q33 207 172 357.5t344 177.5l29 172h149l-28 -178q113 -20 161 -52l-45 -288q-41 53 -83 77.5t-107 24.5q-117 0 -200 -89t-101 -208q-18 -117 39 -201t172 -84q133 0 215 103h4l-45 -289q-84 -41 -178 -51l-31 -191h-150l31 187q-193 16 -287 172.5t-61 359.5z " />
<glyph unicode="&#xa3;" d="M27 39q141 291 346 299q33 61 41 121q16 90 -17 172h-268l21 135h190q-55 164 -35 313q37 221 208 363.5t392 142.5q463 0 404 -528l-308 -35l15 70q18 88 -28 164.5t-132 76.5q-100 0 -169 -78.5t-85 -183.5q-18 -113 41 -285l6 -20h279l-21 -135h-229q0 -80 -19 -160 q-4 -25 -16 -78t-16 -78l129 -55q76 -33 125 -33q76 0 131 121l205 -45q-127 -319 -365 -319q-86 0 -236 59q-143 59 -219 59q-104 0 -153 -102z" />
<glyph unicode="&#xa5;" d="M119 500l20 135h402l12 74l-37 75h-352l20 136h275l-258 624h350l199 -536l368 536h350l-454 -624h274l-20 -136h-359l-55 -75l-12 -74h401l-20 -135h-402l-80 -500h-301l80 500h-401z" />
<glyph unicode="&#xa7;" horiz-adv-x="1181" d="M137 203h283q-16 -94 26.5 -168t135.5 -74q74 0 129 54.5t65 127.5q8 49 -15.5 90t-48 57.5t-77.5 49.5l-248 147q-104 63 -149 137t-27 193q29 184 205 334q-51 98 -31 229q27 170 162 275.5t307 105.5q170 0 271.5 -97t82.5 -263h-256q4 63 -30 106q-33 43 -101 43 q-57 0 -99 -46t-52 -105q-6 -37 2 -65.5t36.5 -55.5t42 -37t56.5 -37l201 -123q123 -76 176 -147.5t33 -200.5q-16 -92 -68.5 -179t-128.5 -148q66 -96 43 -252q-29 -184 -174.5 -304t-347.5 -120q-213 0 -331 129t-73 344zM474 847q-5 -11 3 -26.5t8 -22.5t12.5 -20.5 t14.5 -17.5t17.5 -15.5t20.5 -15.5t21.5 -14t22.5 -15l258 -174q84 61 100 160q6 33 1 57.5t-28.5 48t-32.5 30.5t-48 34l-260 178q-90 -59 -107 -155q2 -21 -3 -32z" />
<glyph unicode="&#xa8;" horiz-adv-x="819" d="M252 1396.5q10 67.5 66.5 116t124 48.5t107.5 -48.5t29.5 -116t-66.5 -115.5t-123.5 -48t-107.5 48t-30 115.5zM684 1396.5q10 67.5 66.5 116t124 48.5t107.5 -48.5t29.5 -116t-66.5 -115.5t-123.5 -48t-107.5 48t-30 115.5z" />
<glyph unicode="&#xa9;" horiz-adv-x="1638" d="M135 772q53 340 325.5 576.5t610.5 236.5t534.5 -236.5t143.5 -576.5t-325.5 -576.5t-610.5 -236.5t-534.5 236.5t-143.5 576.5zM311 772q-43 -270 112 -453.5t417 -183.5q264 0 477 183.5t256 453.5t-111.5 453.5t-419 183.5t-476.5 -183.5t-255 -453.5zM485.5 778 q32.5 205 187 350.5t349.5 145.5q164 0 260 -92t100 -242h-180q-6 76 -67.5 117t-141.5 41q-121 0 -216 -97.5t-115 -222.5q-18 -125 45 -222t184 -97q82 0 155.5 41t104.5 116h180q-51 -150 -177 -241.5t-290 -91.5q-195 0 -303 145t-75.5 350z" />
<glyph unicode="&#xaa;" horiz-adv-x="694" d="M217 1266q20 127 117.5 223t232.5 96q113 0 170 -76l8 56h183l-97 -602h-182l10 55h-4q-72 -76 -188 -76q-137 0 -203.5 97.5t-46.5 226.5zM405.5 1263.5q-10.5 -65.5 25.5 -117.5t103.5 -52t120 53t62.5 117q10 66 -26 118t-103 52q-70 0 -121 -52.5t-61.5 -118z" />
<glyph unicode="&#xab;" horiz-adv-x="1052" d="M141 655l404 498l157 -115l-313 -383l197 -372l-197 -119zM551 655l403 498l158 -115l-313 -383l196 -372l-196 -119z" />
<glyph unicode="&#xac;" d="M170 645l39 242h1048l-96 -596h-241l57 354h-807z" />
<glyph unicode="&#xad;" horiz-adv-x="675" d="M174 539l37 235h500l-37 -235h-500z" />
<glyph unicode="&#xae;" horiz-adv-x="1638" d="M135 772q53 340 325.5 576.5t610.5 236.5t534.5 -236.5t143.5 -576.5t-325.5 -576.5t-610.5 -236.5t-534.5 236.5t-143.5 576.5zM311 772q-43 -270 112 -453.5t417 -183.5q264 0 477 183.5t256 453.5t-111.5 453.5t-419 183.5t-476.5 -183.5t-255 -453.5zM537 354 l135 844h409q166 0 239 -51t48 -207q-37 -233 -270 -250l151 -336h-192l-144 336h-147l-53 -336h-176zM791 842h237q78 0 119 23.5t51 88.5q4 33 -9 53.5t-47 27.5t-57.5 9.5t-66.5 2.5h-195z" />
<glyph unicode="&#xaf;" horiz-adv-x="819" d="M233 1364l29 180h782l-28 -180h-783z" />
<glyph unicode="&#xb0;" horiz-adv-x="819" d="M305 1278q18 125 124 216t233 91q125 0 201.5 -90t56 -217t-125 -217t-231.5 -90t-202.5 90t-55.5 217zM444 1278q-10 -72 32 -120t111.5 -48t126 49t67 119t-31.5 119t-112 49t-127.5 -49t-65.5 -119z" />
<glyph unicode="&#xb1;" d="M68 0l38 242h1049l-39 -242h-1048zM178 696l39 242h404l55 352h242l-56 -352h404l-39 -242h-404l-55 -352h-242l56 352h-404z" />
<glyph unicode="&#xb4;" horiz-adv-x="778" d="M358 1241l301 344l189 -127l-359 -307z" />
<glyph unicode="&#xb5;" horiz-adv-x="1095" d="M12 -537l244 1543h287l-86 -545q-41 -252 122.5 -252t204.5 252l86 545h287l-94 -592q-72 -446 -522 -447q-16 0 -30.5 1t-29 6.5t-21.5 7.5t-21.5 11t-17.5 11t-20 12l-14 13l-88 -566h-287z" />
<glyph unicode="&#xb6;" horiz-adv-x="1181" d="M205 1018q16 195 171.5 360.5t350.5 165.5h659l-28 -192h-125l-264 -1665h-213l264 1665h-127l-264 -1665h-213l141 893q-176 0 -273 116.5t-79 321.5z" />
<glyph unicode="&#xb7;" horiz-adv-x="591" d="M199 526q10 76 72.5 128.5t138 52.5t119.5 -52.5t34 -128.5q-12 -76 -74.5 -130t-138.5 -54t-119.5 54t-31.5 130z" />
<glyph unicode="&#xb8;" horiz-adv-x="778" d="M139 -344l250 303l172 -96l-282 -285z" />
<glyph unicode="&#xba;" horiz-adv-x="694" d="M205 1264q23 139 133.5 230t262 91t233 -90t59 -231.5t-132 -231.5t-263 -90t-234.5 90.5t-58 231.5zM395.5 1265.5q-10.5 -65.5 24.5 -118.5t102.5 -53t118.5 53t61.5 118.5t-24.5 117t-103 51.5q-70 0 -119.5 -51.5t-60 -117z" />
<glyph unicode="&#xbb;" horiz-adv-x="1052" d="M147 283l316 372l-195 383l195 115l248 -498l-404 -491zM557 283l315 372l-194 383l194 115l248 -498l-403 -491z" />
<glyph unicode="&#xc0;" horiz-adv-x="1384" d="M-18 0l854 1585h233l334 -1585h-322l-67 326h-537l-178 -326h-317zM602 571h367l-103 562h-4zM719 1925l229 127l191 -344l-160 -90z" />
<glyph unicode="&#xc1;" horiz-adv-x="1384" d="M-18 0l854 1585h233l334 -1585h-322l-67 326h-537l-178 -326h-317zM602 571h367l-103 562h-4zM797 1708l301 344l188 -127l-358 -307z" />
<glyph unicode="&#xc2;" horiz-adv-x="1384" d="M-18 0l854 1585h233l334 -1585h-322l-67 326h-537l-178 -326h-317zM602 571h367l-103 562h-4zM618 1737l400 315l297 -315l-144 -135l-192 213l-258 -213z" />
<glyph unicode="&#xc3;" horiz-adv-x="1384" d="M-18 0l854 1585h233l334 -1585h-322l-67 326h-537l-178 -326h-317zM573 1704q25 104 98.5 194.5t170.5 90.5q51 0 149 -43l36 -16q22 -9 35 -15t28.5 -10t27.5 -4q53 0 103 75q6 6 8 11h170q-41 -119 -116 -204t-179 -85q-43 0 -133 45t-129 45q-63 0 -101 -84h-168z M602 571h367l-103 562h-4z" />
<glyph unicode="&#xc4;" horiz-adv-x="1384" d="M-18 0l854 1585h233l334 -1585h-322l-67 326h-537l-178 -326h-317zM602 571h367l-103 562h-4zM608 1863.5q10 67.5 66.5 116t124 48.5t107.5 -48.5t30 -116t-66.5 -115.5t-124 -48t-107.5 48t-30 115.5zM1040.5 1863.5q10.5 67.5 66.5 116t123.5 48.5t107.5 -48.5 t30 -116t-66.5 -115.5t-124 -48t-107.5 48t-29.5 115.5z" />
<glyph unicode="&#xc5;" horiz-adv-x="1384" d="M-18 0l854 1585h233l334 -1585h-322l-67 326h-537l-178 -326h-317zM602 571h367l-103 562h-4zM780 1847q14 84 84 144.5t154 60.5t135 -60.5t37 -144.5q-14 -86 -84 -146.5t-154 -60.5t-135 60.5t-37 146.5zM901 1847q-6 -35 14.5 -60.5t55.5 -25.5t63.5 25.5t34.5 60.5 q4 35 -16.5 59.5t-55 24.5t-63.5 -24.5t-33 -59.5z" />
<glyph unicode="&#xc6;" horiz-adv-x="1886" d="M-18 0l843 1544h762l53 -262h-512l72 -342h504l51 -262h-504l88 -416h512l52 -262h-826l-69 326h-535l-172 -326h-319zM600 571h365l-107 525h-4z" />
<glyph unicode="&#xc7;" horiz-adv-x="1230" d="M158 760q53 338 307 581.5t586 243.5q178 0 329 -90l-57 -360q-51 76 -135 119.5t-180 43.5q-207 0 -355.5 -159.5t-183.5 -372.5q-33 -207 68.5 -363.5t302.5 -156.5q94 0 192 45t176 119l-57 -359q-209 -92 -365 -92q-319 0 -499 237.5t-129 563.5zM367 -344l249 303 l172 -96l-282 -285z" />
<glyph unicode="&#xc8;" horiz-adv-x="999" d="M111 0l243 1544h799l-41 -262h-498l-53 -340h479l-41 -262h-479l-67 -418h497l-41 -262h-798zM526 1925l230 127l190 -344l-160 -90z" />
<glyph unicode="&#xc9;" horiz-adv-x="999" d="M111 0l243 1544h799l-41 -262h-498l-53 -340h479l-41 -262h-479l-67 -418h497l-41 -262h-798zM604 1708l301 344l189 -127l-359 -307z" />
<glyph unicode="&#xca;" horiz-adv-x="999" d="M111 0l243 1544h799l-41 -262h-498l-53 -340h479l-41 -262h-479l-67 -418h497l-41 -262h-798zM426 1737l399 315l297 -315l-143 -135l-193 213l-258 -213z" />
<glyph unicode="&#xcb;" horiz-adv-x="999" d="M111 0l243 1544h799l-41 -262h-498l-53 -340h479l-41 -262h-479l-67 -418h497l-41 -262h-798zM416 1863.5q10 67.5 66.5 116t124 48.5t107.5 -48.5t29.5 -116t-66.5 -115.5t-124 -48t-107.5 48t-29.5 115.5zM848 1863.5q10 67.5 66.5 116t124 48.5t107.5 -48.5t29.5 -116 t-66.5 -115.5t-123.5 -48t-107.5 48t-30 115.5z" />
<glyph unicode="&#xcc;" horiz-adv-x="520" d="M111 0l243 1544h301l-243 -1544h-301zM307 1925l230 127l190 -344l-160 -90z" />
<glyph unicode="&#xcd;" horiz-adv-x="520" d="M111 0l243 1544h301l-243 -1544h-301zM334 1708l301 344l188 -127l-358 -307z" />
<glyph unicode="&#xce;" horiz-adv-x="520" d="M111 0l243 1544h301l-243 -1544h-301zM186 1737l400 315l297 -315l-144 -135l-192 213l-258 -213z" />
<glyph unicode="&#xcf;" horiz-adv-x="520" d="M111 0l243 1544h301l-243 -1544h-301zM176 1863.5q10 67.5 66.5 116t124 48.5t107.5 -48.5t30 -116t-66.5 -115.5t-124 -48t-107.5 48t-30 115.5zM608 1863.5q10 67.5 66.5 116t124 48.5t107.5 -48.5t30 -116t-66.5 -115.5t-124 -48t-107.5 48t-30 115.5z" />
<glyph unicode="&#xd0;" horiz-adv-x="1323" d="M72 690l39 246h147l96 608h430q332 0 505 -220t120 -554q-53 -330 -298 -550t-572 -220h-428l108 690h-147zM453 262h49q514 0 596 510q80 510 -434 510h-50l-55 -346h232l-39 -246h-232z" />
<glyph unicode="&#xd1;" horiz-adv-x="1554" d="M111 0l251 1585h218l641 -1079h4l164 1038h301l-248 -1575h-217l-643 1080h-4l-166 -1049h-301zM659 1704q25 104 98.5 194.5t170.5 90.5q51 0 149 -43l36 -16q22 -9 35 -15t28.5 -10t27.5 -4q53 0 103 75q6 6 8 11h170q-41 -119 -116 -204t-179 -85q-43 0 -133 45 t-129 45q-63 0 -101 -84h-168z" />
<glyph unicode="&#xd2;" horiz-adv-x="1601" d="M160 774q55 350 304 580.5t589 230.5t515 -230.5t119.5 -580.5t-301 -582.5t-591.5 -232.5q-229 0 -388 109.5t-221.5 294t-25.5 411.5zM467 603q14 -93 50 -171t121 -127t204 -49t218 48t161.5 129t101.5 170t55 183q31 199 -69.5 350.5t-302.5 151.5 q-205 0 -353.5 -151.5t-179.5 -350.5q-20 -90 -6 -183zM827 1925l230 127l190 -344l-160 -90z" />
<glyph unicode="&#xd3;" horiz-adv-x="1601" d="M160 774q55 350 304 580.5t589 230.5t515 -230.5t119.5 -580.5t-301 -582.5t-591.5 -232.5q-229 0 -388 109.5t-221.5 294t-25.5 411.5zM467 603q14 -93 50 -171t121 -127t204 -49t218 48t161.5 129t101.5 170t55 183q31 199 -69.5 350.5t-302.5 151.5 q-205 0 -353.5 -151.5t-179.5 -350.5q-20 -90 -6 -183zM905 1708l301 344l189 -127l-359 -307z" />
<glyph unicode="&#xd4;" horiz-adv-x="1601" d="M160 774q55 350 304 580.5t589 230.5t515 -230.5t119.5 -580.5t-301 -582.5t-591.5 -232.5q-229 0 -388 109.5t-221.5 294t-25.5 411.5zM467 603q14 -93 50 -171t121 -127t204 -49t218 48t161.5 129t101.5 170t55 183q31 199 -69.5 350.5t-302.5 151.5 q-205 0 -353.5 -151.5t-179.5 -350.5q-20 -90 -6 -183zM727 1737l399 315l297 -315l-143 -135l-193 213l-258 -213z" />
<glyph unicode="&#xd5;" horiz-adv-x="1601" d="M160 774q55 350 304 580.5t589 230.5t515 -230.5t119.5 -580.5t-301 -582.5t-591.5 -232.5q-229 0 -388 109.5t-221.5 294t-25.5 411.5zM467 603q14 -93 50 -171t121 -127t204 -49t218 48t161.5 129t101.5 170t55 183q31 199 -69.5 350.5t-302.5 151.5 q-205 0 -353.5 -151.5t-179.5 -350.5q-20 -90 -6 -183zM682 1704q25 104 98.5 194.5t169.5 90.5q51 0 150 -43l36 -16q22 -9 35 -15t28 -10t28 -4q53 0 102 75q6 6 8 11h170q-41 -119 -115.5 -204t-179.5 -85q-43 0 -133 45t-129 45q-63 0 -100 -84h-168z" />
<glyph unicode="&#xd6;" horiz-adv-x="1601" d="M160 774q55 350 304 580.5t589 230.5t515 -230.5t119.5 -580.5t-301 -582.5t-591.5 -232.5q-229 0 -388 109.5t-221.5 294t-25.5 411.5zM467 603q14 -93 50 -171t121 -127t204 -49t218 48t161.5 129t101.5 170t55 183q31 199 -69.5 350.5t-302.5 151.5 q-205 0 -353.5 -151.5t-179.5 -350.5q-20 -90 -6 -183zM717 1863.5q10 67.5 66.5 116t124 48.5t107.5 -48.5t29.5 -116t-66.5 -115.5t-124 -48t-107.5 48t-29.5 115.5zM1149 1863.5q10 67.5 66.5 116t124 48.5t107.5 -48.5t29.5 -116t-66.5 -115.5t-123.5 -48t-107.5 48 t-30 115.5z" />
<glyph unicode="&#xd8;" horiz-adv-x="1601" d="M2 68l225 202q-115 213 -67 504q55 350 304 580.5t589 230.5q276 0 448 -160l205 185l137 -140l-223 -200q113 -205 68 -496q-55 -350 -301 -582.5t-592 -232.5q-279 0 -449 158l-215 -195zM473 786q-25 -154 14 -280l766 694q-98 88 -247 88q-205 0 -353.5 -151.5 t-179.5 -350.5zM592 340q94 -84 250 -84q119 0 218 48t161.5 129t101.5 170t55 183q20 137 -18 246z" />
<glyph unicode="&#xd9;" horiz-adv-x="1351" d="M201 621l145 923h301l-135 -864q-14 -90 -17 -154.5t9 -142.5t64.5 -120t142.5 -42t155.5 42t102.5 120t55 142.5t33 154.5l135 864h301l-145 -923q-47 -303 -215 -482.5t-463 -179.5t-405.5 179.5t-63.5 482.5zM651 1925l230 127l190 -344l-160 -90z" />
<glyph unicode="&#xda;" horiz-adv-x="1351" d="M201 621l145 923h301l-135 -864q-14 -90 -17 -154.5t9 -142.5t64.5 -120t142.5 -42t155.5 42t102.5 120t55 142.5t33 154.5l135 864h301l-145 -923q-47 -303 -215 -482.5t-463 -179.5t-405.5 179.5t-63.5 482.5zM821 1708l301 344l189 -127l-359 -307z" />
<glyph unicode="&#xdb;" horiz-adv-x="1351" d="M201 621l145 923h301l-135 -864q-14 -90 -17 -154.5t9 -142.5t64.5 -120t142.5 -42t155.5 42t102.5 120t55 142.5t33 154.5l135 864h301l-145 -923q-47 -303 -215 -482.5t-463 -179.5t-405.5 179.5t-63.5 482.5zM602 1737l399 315l297 -315l-143 -135l-192 213l-258 -213 z" />
<glyph unicode="&#xdc;" horiz-adv-x="1351" d="M201 621l145 923h301l-135 -864q-14 -90 -17 -154.5t9 -142.5t64.5 -120t142.5 -42t155.5 42t102.5 120t55 142.5t33 154.5l135 864h301l-145 -923q-47 -303 -215 -482.5t-463 -179.5t-405.5 179.5t-63.5 482.5zM608 1863.5q10 67.5 66.5 116t124 48.5t107.5 -48.5 t30 -116t-66.5 -115.5t-124 -48t-107.5 48t-30 115.5zM1040.5 1863.5q10.5 67.5 66.5 116t123.5 48.5t107.5 -48.5t30 -116t-66.5 -115.5t-124 -48t-107.5 48t-29.5 115.5z" />
<glyph unicode="&#xdd;" horiz-adv-x="1202" d="M211 1544h350l187 -536l378 536h353l-619 -835l-112 -709h-302l113 709zM778 1708l301 344l189 -127l-359 -307z" />
<glyph unicode="&#xde;" horiz-adv-x="1081" d="M111 0l243 1544h301l-39 -246h109q535 0 459 -479q-39 -244 -184.5 -365.5t-385.5 -121.5h-149l-53 -332h-301zM504 582h61q145 0 218 49t96 190q20 137 -42.5 182.5t-205.5 45.5h-53z" />
<glyph unicode="&#xdf;" horiz-adv-x="1148" d="M102 0l197 1237q82 524 537 524q201 0 306 -122.5t75 -323.5q-35 -209 -209 -332q125 -57 171 -183t21 -280q-39 -250 -218 -401.5t-431 -151.5h-41l41 250q131 -4 230.5 89t119.5 226q23 135 -47 221.5t-205 88.5l39 241q102 -2 169 61.5t83 166.5q14 84 -24.5 142 t-120.5 58q-35 0 -64 -12t-49 -29.5t-37.5 -50.5t-28 -56.5t-20.5 -65.5t-13 -62.5t-9.5 -64.5t-8.5 -52l-176 -1118h-287z" />
<glyph unicode="&#xe0;" horiz-adv-x="1157" d="M111 508q35 213 185 371.5t357 158.5q174 0 260 -127l17 95h282l-159 -1006h-283l14 92h-4q-53 -59 -133 -92t-160 -33q-211 0 -311 162t-65 379zM401.5 503.5q-16.5 -108.5 35.5 -195.5t156.5 -87t186.5 87t98.5 195.5t-37 194.5t-157.5 86t-185 -86t-97.5 -194.5z M502 1458l229 127l191 -344l-160 -90z" />
<glyph unicode="&#xe1;" horiz-adv-x="1157" d="M111 508q35 213 185 371.5t357 158.5q174 0 260 -127l17 95h282l-159 -1006h-283l14 92h-4q-53 -59 -133 -92t-160 -33q-211 0 -311 162t-65 379zM401.5 503.5q-16.5 -108.5 35.5 -195.5t156.5 -87t186.5 87t98.5 195.5t-37 194.5t-157.5 86t-185 -86t-97.5 -194.5z M631 1241l301 344l188 -127l-358 -307z" />
<glyph unicode="&#xe2;" horiz-adv-x="1157" d="M111 508q35 213 185 371.5t357 158.5q174 0 260 -127l17 95h282l-159 -1006h-283l14 92h-4q-53 -59 -133 -92t-160 -33q-211 0 -311 162t-65 379zM401.5 503.5q-16.5 -108.5 35.5 -195.5t156.5 -87t186.5 87t98.5 195.5t-37 194.5t-157.5 86t-185 -86t-97.5 -194.5z M432 1270l399 315l297 -315l-143 -135l-192 213l-258 -213z" />
<glyph unicode="&#xe3;" horiz-adv-x="1157" d="M111 508q35 213 185 371.5t357 158.5q174 0 260 -127l17 95h282l-159 -1006h-283l14 92h-4q-53 -59 -133 -92t-160 -33q-211 0 -311 162t-65 379zM387 1237q25 104 98.5 194.5t169.5 90.5q51 0 150 -43l36 -16q22 -9 35 -15t28.5 -10t27.5 -4q53 0 102 75q6 6 8 11h170 q-41 -119 -115.5 -204t-178.5 -85q-43 0 -134 45q-94 45 -129 45q-63 0 -100 -84h-168zM401.5 503.5q-16.5 -108.5 35.5 -195.5t156.5 -87t186.5 87t98.5 195.5t-37 194.5t-157.5 86t-185 -86t-97.5 -194.5z" />
<glyph unicode="&#xe4;" horiz-adv-x="1157" d="M111 508q35 213 185 371.5t357 158.5q174 0 260 -127l17 95h282l-159 -1006h-283l14 92h-4q-53 -59 -133 -92t-160 -33q-211 0 -311 162t-65 379zM401.5 503.5q-16.5 -108.5 35.5 -195.5t156.5 -87t186.5 87t98.5 195.5t-37 194.5t-157.5 86t-185 -86t-97.5 -194.5z M422 1396.5q10 67.5 66.5 116t124 48.5t107.5 -48.5t29.5 -116t-66.5 -115.5t-123.5 -48t-107.5 48t-30 115.5zM854 1396.5q10 67.5 66.5 116t124 48.5t107.5 -48.5t29.5 -116t-66.5 -115.5t-123.5 -48t-107.5 48t-30 115.5z" />
<glyph unicode="&#xe5;" horiz-adv-x="1157" d="M111 508q35 213 185 371.5t357 158.5q174 0 260 -127l17 95h282l-159 -1006h-283l14 92h-4q-53 -59 -133 -92t-160 -33q-211 0 -311 162t-65 379zM401.5 503.5q-16.5 -108.5 35.5 -195.5t156.5 -87t186.5 87t98.5 195.5t-37 194.5t-157.5 86t-185 -86t-97.5 -194.5z M594 1380q12 84 83 144.5t154.5 60.5t134 -60.5t38.5 -144.5q-14 -86 -84 -146t-154 -60t-135 60t-37 146zM715 1380q-6 -35 14.5 -60.5t55 -25.5t63.5 26t35 60q4 35 -16.5 59.5t-55.5 24.5t-63.5 -24.5t-32.5 -59.5z" />
<glyph unicode="&#xe6;" horiz-adv-x="1622" d="M70 297q25 156 149.5 243t284.5 87q133 0 225 -56l6 33q16 106 -37 160.5t-161 54.5q-123 0 -252 -45l34 223q172 41 287 41q100 0 186.5 -37.5t118.5 -115.5q145 154 367 153q236 0 332 -152.5t59 -393.5l-6 -35h-662q-16 -111 19 -191t137 -80q127 0 215 138l258 -43 q-76 -150 -212 -232t-296 -82q-250 0 -331 166q-74 -80 -177.5 -123t-207.5 -43q-164 0 -262.5 85t-73.5 245zM346 307q-12 -66 33 -101.5t115 -35.5q63 0 122.5 39t69.5 100q10 66 -41 100.5t-121 34.5q-66 0 -117 -37t-61 -100zM1034 635h383q2 84 -39 143.5t-118 59.5 q-82 0 -141.5 -58.5t-84.5 -144.5z" />
<glyph unicode="&#xe7;" horiz-adv-x="862" d="M111 500q35 227 208 382.5t398 155.5q133 0 223 -63l-43 -277q-82 98 -195 99q-115 0 -198.5 -90.5t-104.5 -208.5q-18 -123 41.5 -206t177.5 -83q115 0 218 96l-45 -276q-121 -61 -259 -62q-219 0 -338.5 156t-82.5 377zM182 -344l250 303l172 -96l-282 -285z" />
<glyph unicode="&#xe8;" horiz-adv-x="1026" d="M109 494q39 240 188 392t385 152t332 -152.5t59 -393.5l-6 -35h-661q-16 -111 18.5 -191t136.5 -80q127 0 215 138l258 -43q-76 -150 -212 -232t-296 -82q-229 0 -341.5 147t-75.5 380zM436 1458l230 127l190 -344l-160 -90zM442 635h383q2 84 -39 143.5t-118 59.5 q-82 0 -141.5 -58.5t-84.5 -144.5z" />
<glyph unicode="&#xe9;" horiz-adv-x="1026" d="M109 494q39 240 188 392t385 152t332 -152.5t59 -393.5l-6 -35h-661q-16 -111 18.5 -191t136.5 -80q127 0 215 138l258 -43q-76 -150 -212 -232t-296 -82q-229 0 -341.5 147t-75.5 380zM442 635h383q2 84 -39 143.5t-118 59.5q-82 0 -141.5 -58.5t-84.5 -144.5zM565 1241 l301 344l189 -127l-359 -307z" />
<glyph unicode="&#xea;" horiz-adv-x="1026" d="M109 494q39 240 188 392t385 152t332 -152.5t59 -393.5l-6 -35h-661q-16 -111 18.5 -191t136.5 -80q127 0 215 138l258 -43q-76 -150 -212 -232t-296 -82q-229 0 -341.5 147t-75.5 380zM367 1270l399 315l297 -315l-143 -135l-193 213l-258 -213zM442 635h383 q2 84 -39 143.5t-118 59.5q-82 0 -141.5 -58.5t-84.5 -144.5z" />
<glyph unicode="&#xeb;" horiz-adv-x="1026" d="M109 494q39 240 188 392t385 152t332 -152.5t59 -393.5l-6 -35h-661q-16 -111 18.5 -191t136.5 -80q127 0 215 138l258 -43q-76 -150 -212 -232t-296 -82q-229 0 -341.5 147t-75.5 380zM356.5 1396.5q10.5 67.5 66.5 116t123.5 48.5t107.5 -48.5t30 -116t-66.5 -115.5 t-124 -48t-107.5 48t-29.5 115.5zM442 635h383q2 84 -39 143.5t-118 59.5q-82 0 -141.5 -58.5t-84.5 -144.5zM788.5 1396.5q10.5 67.5 66.5 116t124 48.5t107.5 -48.5t29.5 -116t-66.5 -115.5t-124 -48t-107.5 48t-29.5 115.5z" />
<glyph unicode="&#xec;" horiz-adv-x="518" d="M117 0l159 1006h287l-160 -1006h-286zM211 1458l229 127l191 -344l-160 -90z" />
<glyph unicode="&#xed;" horiz-adv-x="518" d="M117 0l159 1006h287l-160 -1006h-286zM279 1241l301 344l188 -127l-358 -307z" />
<glyph unicode="&#xee;" horiz-adv-x="518" d="M113 1270l399 315l297 -315l-143 -135l-193 213l-258 -213zM117 0l159 1006h287l-160 -1006h-286z" />
<glyph unicode="&#xef;" horiz-adv-x="518" d="M102.5 1396.5q10.5 67.5 66.5 116t123.5 48.5t107.5 -48.5t30 -116t-66.5 -115.5t-124 -48t-107.5 48t-29.5 115.5zM117 0l159 1006h287l-160 -1006h-286zM534.5 1396.5q10.5 67.5 66.5 116t124 48.5t107.5 -48.5t29.5 -116t-66.5 -115.5t-124 -48t-107.5 48t-29.5 115.5 z" />
<glyph unicode="&#xf0;" horiz-adv-x="1122" d="M113 504q37 236 203.5 381t375.5 145q74 0 158 -31q-51 160 -168 312l-270 -158l-103 125l271 156q-86 96 -177 176l228 153q90 -76 188 -188l271 156l102 -123l-270 -158q37 -49 57 -79t58 -92t59.5 -111.5t47 -126t35 -149.5t10.5 -166t-15 -191q-20 -129 -71.5 -230.5 t-116 -163t-144.5 -102.5t-149.5 -56.5t-137.5 -15.5q-221 0 -351 145.5t-91 391.5zM403 502q-18 -109 35.5 -195t157.5 -86t184 86t99 195q18 111 -34 196.5t-158.5 85.5t-186 -85.5t-97.5 -196.5z" />
<glyph unicode="&#xf1;" horiz-adv-x="1105" d="M102 0l160 1006h287l-14 -93h4q102 125 280 125q350 0 283 -424l-98 -614h-287l84 532q8 45 10 63.5t6 60.5t-3 61.5t-19.5 45t-39 36t-65.5 10.5q-59 0 -102 -28.5t-66.5 -85t-34 -95.5t-20.5 -102l-78 -498h-287zM360 1237q25 104 98.5 194.5t170.5 90.5q51 0 149 -43 l36 -16q22 -9 35 -15t28.5 -10t27.5 -4q53 0 103 75q6 6 8 11h170q-41 -119 -116 -204t-179 -85q-43 0 -133 45q-94 45 -129 45q-63 0 -101 -84h-168z" />
<glyph unicode="&#xf2;" horiz-adv-x="1122" d="M113 501.5q37 235.5 208 386t404 150.5t357 -150.5t87.5 -386t-207.5 -385t-407 -149.5t-357.5 149.5t-84.5 385zM403 502q-18 -109 35.5 -195t157.5 -86t184 86t99 195q18 111 -34 196.5t-158.5 85.5t-186 -85.5t-97.5 -196.5zM483 1458l230 127l190 -344l-160 -90z" />
<glyph unicode="&#xf3;" horiz-adv-x="1122" d="M113 501.5q37 235.5 208 386t404 150.5t357 -150.5t87.5 -386t-207.5 -385t-407 -149.5t-357.5 149.5t-84.5 385zM403 502q-18 -109 35.5 -195t157.5 -86t184 86t99 195q18 111 -34 196.5t-158.5 85.5t-186 -85.5t-97.5 -196.5zM612 1241l301 344l189 -127l-359 -307z " />
<glyph unicode="&#xf4;" horiz-adv-x="1122" d="M113 501.5q37 235.5 208 386t404 150.5t357 -150.5t87.5 -386t-207.5 -385t-407 -149.5t-357.5 149.5t-84.5 385zM403 502q-18 -109 35.5 -195t157.5 -86t184 86t99 195q18 111 -34 196.5t-158.5 85.5t-186 -85.5t-97.5 -196.5zM414 1270l399 315l297 -315l-143 -135 l-193 213l-258 -213z" />
<glyph unicode="&#xf5;" horiz-adv-x="1122" d="M113 501.5q37 235.5 208 386t404 150.5t357 -150.5t87.5 -386t-207.5 -385t-407 -149.5t-357.5 149.5t-84.5 385zM369 1237q25 104 98.5 194.5t169.5 90.5q51 0 149 -43l36 -16q22 -9 35 -15t28.5 -10t27.5 -4q53 0 103 75q6 6 8 11h170q-41 -119 -115.5 -204t-179.5 -85 q-43 0 -133 45q-94 45 -129 45q-63 0 -100 -84h-168zM403 502q-18 -109 35.5 -195t157.5 -86t184 86t99 195q18 111 -34 196.5t-158.5 85.5t-186 -85.5t-97.5 -196.5z" />
<glyph unicode="&#xf6;" horiz-adv-x="1122" d="M113 501.5q37 235.5 208 386t404 150.5t357 -150.5t87.5 -386t-207.5 -385t-407 -149.5t-357.5 149.5t-84.5 385zM403 502q-18 -109 35.5 -195t157.5 -86t184 86t99 195q18 111 -34 196.5t-158.5 85.5t-186 -85.5t-97.5 -196.5zM403.5 1396.5q10.5 67.5 66.5 116 t124 48.5t107.5 -48.5t29.5 -116t-66.5 -115.5t-124 -48t-107.5 48t-29.5 115.5zM835.5 1396.5q10.5 67.5 66.5 116t124 48.5t108 -48.5t29.5 -116t-67 -115.5t-124 -48t-107.5 48t-29.5 115.5z" />
<glyph unicode="&#xf7;" d="M131 403l39 242h1049l-39 -242h-1049zM442 129q10 70 68.5 120t128.5 50t112 -50t31.5 -120t-68 -120t-128.5 -50q-70 0 -112 49t-32 121zM567 920q10 70 68.5 120t128.5 50t112 -50.5t31.5 -120t-68 -119.5t-128.5 -50q-70 0 -112 49t-32 121z" />
<glyph unicode="&#xf8;" horiz-adv-x="1155" d="M-8 20l172 148q-82 135 -51 334q37 236 208 386t404 150q201 0 324 -112l176 151l96 -102l-188 -164q63 -135 36 -309q-37 -236 -207.5 -385.5t-406.5 -149.5q-182 0 -297 94l-170 -145zM403 502q-12 -66 9 -131l413 352q-55 61 -139 61q-106 0 -185.5 -85.5 t-97.5 -196.5zM477 262q47 -41 119 -41q104 0 184 86t99 195q6 53 0 102z" />
<glyph unicode="&#xf9;" horiz-adv-x="1095" d="M162 414l94 592h287l-86 -545q-41 -252 122.5 -252t204.5 252l86 545h287l-94 -592q-72 -446 -522.5 -446t-378.5 446zM471 1458l229 127l191 -344l-160 -90z" />
<glyph unicode="&#xfa;" horiz-adv-x="1095" d="M162 414l94 592h287l-86 -545q-41 -252 122.5 -252t204.5 252l86 545h287l-94 -592q-72 -446 -522.5 -446t-378.5 446zM600 1241l301 344l189 -127l-359 -307z" />
<glyph unicode="&#xfb;" horiz-adv-x="1095" d="M162 414l94 592h287l-86 -545q-41 -252 122.5 -252t204.5 252l86 545h287l-94 -592q-72 -446 -522.5 -446t-378.5 446zM401 1270l400 315l297 -315l-144 -135l-192 213l-258 -213z" />
<glyph unicode="&#xfc;" horiz-adv-x="1095" d="M162 414l94 592h287l-86 -545q-41 -252 122.5 -252t204.5 252l86 545h287l-94 -592q-72 -446 -522.5 -446t-378.5 446zM391 1396.5q10 67.5 66.5 116t124 48.5t107.5 -48.5t30 -116t-66.5 -115.5t-124 -48t-107.5 48t-30 115.5zM823.5 1396.5q10.5 67.5 66.5 116 t123.5 48.5t107.5 -48.5t30 -116t-66.5 -115.5t-124 -48t-107.5 48t-29.5 115.5z" />
<glyph unicode="&#xfd;" horiz-adv-x="1064" d="M-25 -537l441 691l-293 852h326l149 -572l348 572h320l-975 -1543h-316zM614 1241l301 344l189 -127l-359 -307z" />
<glyph unicode="&#xfe;" horiz-adv-x="1157" d="M18 -537l359 2274h287l-129 -824q125 125 296 125q205 0 307.5 -160.5t67.5 -369.5q-35 -219 -186.5 -380t-364.5 -161q-80 0 -147.5 34t-99.5 93h-5l-98 -631h-287zM440.5 503.5q-16.5 -108.5 35.5 -195.5t156.5 -87t185.5 87t97.5 195.5t-36 194.5t-157 86t-185 -86 t-97 -194.5z" />
<glyph unicode="&#xff;" horiz-adv-x="1064" d="M-25 -537l441 691l-293 852h326l149 -572l348 572h320l-975 -1543h-316zM391 1396.5q10 67.5 66.5 116t124 48.5t107.5 -48.5t30 -116t-66.5 -115.5t-124 -48t-107.5 48t-30 115.5zM823.5 1396.5q10.5 67.5 66.5 116t123.5 48.5t107.5 -48.5t30 -116t-66.5 -115.5 t-124 -48t-107.5 48t-29.5 115.5z" />
<glyph unicode="&#x131;" horiz-adv-x="518" d="M117 0l159 1006h287l-160 -1006h-286z" />
<glyph unicode="&#x152;" horiz-adv-x="2127" d="M158 768q51 322 304 569.5t568 247.5q137 0 253 -56t181 -159h4l27 174h786l-40 -262h-488l-53 -342h465l-43 -262h-465l-66 -416h488l-41 -262h-787l27 174q-219 -215 -506 -215q-207 0 -361.5 119t-220 303t-32.5 387zM444 768q-31 -201 70.5 -356.5t298.5 -155.5 q199 0 350.5 155.5t182.5 356.5q33 205 -68.5 362.5t-300.5 157.5q-197 0 -348.5 -157.5t-184.5 -362.5z" />
<glyph unicode="&#x153;" horiz-adv-x="1787" d="M108.5 501.5q36.5 235.5 207.5 386t405 150.5q221 0 340 -168q147 168 385 168q236 0 332 -152.5t59 -393.5l-6 -35h-662q-16 -111 19 -191t137 -80q127 0 215 138l258 -43q-76 -150 -212 -232t-296 -82q-254 0 -344 174q-156 -174 -395 -174q-236 0 -357.5 149.5 t-85 385zM399 502q-18 -109 35 -195t157.5 -86t184.5 86t98 195q18 111 -34 196.5t-158.5 85.5t-185.5 -85.5t-97 -196.5zM1196 635h383q2 84 -39 143.5t-119 59.5q-82 0 -141 -58.5t-84 -144.5z" />
<glyph unicode="&#x178;" horiz-adv-x="1202" d="M211 1544h350l187 -536l378 536h353l-619 -835l-112 -709h-302l113 709zM518 1863.5q10 67.5 66.5 116t124 48.5t107.5 -48.5t30 -116t-66.5 -115.5t-124 -48t-107.5 48t-30 115.5zM950.5 1863.5q10.5 67.5 66.5 116t123.5 48.5t107.5 -48.5t30 -116t-66.5 -115.5 t-124 -48t-107.5 48t-29.5 115.5z" />
<glyph unicode="&#x192;" d="M-61 -332l81 258l68 -4q145 0 217 101q49 70 127 309l174 553h-123l45 147h127l76 236q68 205 180.5 319.5t305.5 114.5q102 0 172 -43l-80 -248q-53 35 -115 35q-35 0 -64.5 -19.5t-47 -39t-38 -63.5t-25.5 -60.5t-20 -61.5l-55 -170h219l-45 -147h-221l-190 -596 q-39 -123 -72 -203t-87 -169t-117.5 -139t-160 -84t-217.5 -34z" />
<glyph unicode="&#x2c6;" horiz-adv-x="819" d="M262 1270l400 315l296 -315l-143 -135l-192 213l-258 -213z" />
<glyph unicode="&#x2da;" horiz-adv-x="778" d="M403 1380q12 84 83 144.5t155 60.5t134 -60.5t38 -144.5q-14 -86 -84 -146t-153.5 -60t-135 60t-37.5 146zM524 1380q-6 -35 14.5 -60.5t55.5 -25.5t63.5 26t34.5 60q4 35 -16.5 59.5t-55 24.5t-63.5 -24.5t-33 -59.5z" />
<glyph unicode="&#x2dc;" horiz-adv-x="819" d="M217 1237q25 104 98.5 194.5t169.5 90.5q51 0 150 -43l36 -16q22 -9 35 -15t28.5 -10t27.5 -4q53 0 102 75q6 6 8 11h170q-41 -119 -115.5 -204t-178.5 -85q-43 0 -134 45q-94 45 -129 45q-63 0 -100 -84h-168z" />
<glyph unicode="&#x3a9;" horiz-adv-x="1492" d="M80 0l35 221h288l3 6q-94 113 -141.5 278t-16.5 363q49 303 262 513t496 210q119 0 216 -42t156.5 -111.5t99.5 -160.5t46 -191.5t-6 -200.5q-31 -205 -133.5 -377t-229.5 -281l-2 -6h291l-35 -221h-553l27 162q119 76 219 243.5t139 417.5q20 143 0 263t-91 198t-185 78 q-168 0 -294 -153.5t-163 -395.5q-37 -233 10 -407.5t141 -243.5l-26 -162h-553z" />
<glyph unicode="&#x3c0;" horiz-adv-x="1280" d="M117 0q84 190 167 469t117 475q-135 0 -213 -20l-2 180q104 74 359 74h891l-58 -234h-151l-99 -618q-33 -215 -22 -326h-258q-25 74 12 315l101 629h-297q-47 -219 -129 -499.5t-162 -444.5h-256z" />
<glyph unicode="&#x2000;" horiz-adv-x="1024" />
<glyph unicode="&#x2001;" horiz-adv-x="2048" />
<glyph unicode="&#x2002;" horiz-adv-x="1024" />
<glyph unicode="&#x2003;" horiz-adv-x="2048" />
<glyph unicode="&#x2004;" horiz-adv-x="681" />
<glyph unicode="&#x2005;" horiz-adv-x="512" />
<glyph unicode="&#x2006;" horiz-adv-x="339" />
<glyph unicode="&#x2007;" />
<glyph unicode="&#x2008;" horiz-adv-x="591" />
<glyph unicode="&#x2009;" horiz-adv-x="204" />
<glyph unicode="&#x200a;" horiz-adv-x="20" />
<glyph unicode="&#x200b;" horiz-adv-x="0" />
<glyph unicode="&#x200c;" horiz-adv-x="0" />
<glyph unicode="&#x200d;" horiz-adv-x="0" />
<glyph unicode="&#x200e;" horiz-adv-x="681" />
<glyph unicode="&#x200f;" horiz-adv-x="681" />
<glyph unicode="&#x2010;" horiz-adv-x="675" d="M174 539l37 235h500l-37 -235h-500z" />
<glyph unicode="&#x2011;" horiz-adv-x="675" d="M174 539v235h537v-235h-537z" />
<glyph unicode="&#x2012;" d="M174 539v235h1045v-235h-1045z" />
<glyph unicode="&#x2013;" horiz-adv-x="1024" d="M86 539l37 235h1024l-37 -235h-1024z" />
<glyph unicode="&#x2014;" horiz-adv-x="2048" d="M352 539l37 235h1516l-37 -235h-1516z" />
<glyph unicode="&#x2015;" horiz-adv-x="4096" d="M174 539v235h3957v-235h-3957z" />
<glyph unicode="&#x2016;" horiz-adv-x="1798" d="M1362 -610v2445h227v-2445h-227zM463 -610v2445h227v-2445h-227z" />
<glyph unicode="&#x2018;" horiz-adv-x="606" d="M215 969l393 616l187 -22l-320 -623z" />
<glyph unicode="&#x2019;" horiz-adv-x="606" d="M213 963l324 622l256 -31l-392 -614z" />
<glyph unicode="&#x201a;" horiz-adv-x="606" d="M14 -303l322 622l256 -28l-391 -617z" />
<glyph unicode="&#x201c;" horiz-adv-x="999" d="M215 969l393 616l187 -22l-320 -623zM606 969l393 616l187 -22l-320 -623z" />
<glyph unicode="&#x201d;" horiz-adv-x="999" d="M213 963l324 622l256 -31l-392 -614zM604 963l324 622l256 -31l-391 -614z" />
<glyph unicode="&#x201e;" horiz-adv-x="999" d="M14 -303l322 622l256 -28l-391 -617zM406 -303l321 622l256 -28l-391 -617z" />
<glyph unicode="&#x2020;" horiz-adv-x="1181" d="M285 1008l37 237h331l78 492h268l-77 -492h331l-36 -237h-332l-191 -1207h-268l190 1207h-331z" />
<glyph unicode="&#x2021;" horiz-adv-x="1181" d="M213 557l37 238h332l45 272h-332l37 238h332l67 432h268l-67 -432h332l-37 -238h-332l-45 -272h332l-37 -238h-332l-119 -754h-268l119 754h-332z" />
<glyph unicode="&#x2022;" horiz-adv-x="1181" d="M328 772q23 162 153.5 274.5t292.5 112.5t256 -112.5t70 -274.5q-27 -160 -158 -272.5t-290.5 -112.5t-255 112.5t-68.5 272.5z" />
<glyph unicode="&#x2024;" horiz-adv-x="591" d="M137.5 143.5q12.5 75.5 73.5 128t137 52.5t121 -52.5t32.5 -128t-73.5 -130t-137 -54.5t-121 54.5t-32.5 130z" />
<glyph unicode="&#x2025;" d="M729.5 143.5q12.5 75.5 73.5 128t137 52.5t121 -52.5t32.5 -128t-73.5 -130t-137 -54.5t-121 54.5t-32.5 130zM137.5 143.5q12.5 75.5 73.5 128t137 52.5t121 -52.5t32.5 -128t-73.5 -130t-137 -54.5t-121 54.5t-32.5 130z" />
<glyph unicode="&#x2026;" horiz-adv-x="2048" d="M184 150q10 76 72.5 128t138.5 52t120 -52.5t34 -127.5q-12 -76 -74.5 -130.5t-138.5 -54.5t-120 54.5t-32 130.5zM864.5 143.5q12.5 75.5 73.5 128t137 52.5t121 -52.5t33 -128t-73.5 -130t-137.5 -54.5t-121 54.5t-32.5 130zM1546.5 143.5q12.5 75.5 73.5 128t137 52.5 t121 -52.5t32.5 -128t-73.5 -130t-137 -54.5t-121 54.5t-32.5 130z" />
<glyph unicode="&#x202a;" horiz-adv-x="0" />
<glyph unicode="&#x202f;" horiz-adv-x="409" />
<glyph unicode="&#x2030;" horiz-adv-x="2457" d="M240 1219q27 160 147.5 263t278 103t245.5 -103.5t62 -262.5q-25 -158 -145.5 -261.5t-278.5 -103.5t-246 103.5t-63 261.5zM340 8l1081 1589l127 -69l-1079 -1591zM442 1219q-12 -76 24 -137.5t109.5 -61.5t128 61.5t66.5 137t-22.5 138t-108.5 62.5q-72 0 -127.5 -62 t-69.5 -138zM922 324q25 160 145.5 263t278 103t245.5 -103.5t64 -262.5q-25 -158 -145.5 -261.5t-278.5 -103.5t-246 103.5t-63 261.5zM1124.5 323.5q-12.5 -75.5 23.5 -137t109.5 -61.5t128 61.5t66.5 137t-23.5 138t-107.5 62.5q-74 0 -129 -62.5t-67.5 -138zM1731 324 q25 160 145.5 263t278 103t245.5 -103.5t64 -262.5q-25 -158 -145.5 -261.5t-278.5 -103.5t-246 103.5t-63 261.5zM1933.5 323.5q-12.5 -75.5 23.5 -137t109.5 -61.5t128 61.5t66.5 137t-23.5 138t-107.5 62.5q-74 0 -129 -62.5t-67.5 -138z" />
<glyph unicode="&#x2032;" horiz-adv-x="606" d="M354 872l70 672h246l-144 -672h-172z" />
<glyph unicode="&#x2033;" horiz-adv-x="1212" d="M960 872l70 672h246l-144 -672h-172zM354 872l70 672h246l-144 -672h-172z" />
<glyph unicode="&#x2034;" horiz-adv-x="1818" d="M1566 872l70 672h246l-144 -672h-172zM960 872l70 672h246l-144 -672h-172zM354 872l70 672h246l-144 -672h-172z" />
<glyph unicode="&#x2035;" horiz-adv-x="778" d="M393 1458l230 127l190 -344l-160 -90z" />
<glyph unicode="&#x2036;" horiz-adv-x="1556" d="M1171 1458l230 127l190 -344l-160 -90zM393 1458l230 127l190 -344l-160 -90z" />
<glyph unicode="&#x2037;" horiz-adv-x="2334" d="M1949 1458l230 127l190 -344l-160 -90zM1171 1458l230 127l190 -344l-160 -90zM393 1458l230 127l190 -344l-160 -90z" />
<glyph unicode="&#x2039;" horiz-adv-x="643" d="M141 655l404 498l157 -115l-313 -383l197 -372l-197 -119z" />
<glyph unicode="&#x203a;" horiz-adv-x="643" d="M147 283l316 372l-195 383l195 115l248 -498l-404 -491z" />
<glyph unicode="&#x203c;" horiz-adv-x="1331" d="M838 143.5q12 75.5 73.5 128t137.5 52.5t121 -52.5t32.5 -128t-74 -130t-137 -54.5t-120.5 54.5t-33 130zM922 444l174 1100h291l-174 -1100h-291zM172 143.5q12 75.5 73.5 128t137.5 52.5t121 -52.5t32.5 -128t-74 -130t-137 -54.5t-120.5 54.5t-33 130zM256 444 l174 1100h291l-174 -1100h-291z" />
<glyph unicode="&#x203e;" horiz-adv-x="591" d="M-371 123l29 180h782l-28 -180h-783z" />
<glyph unicode="&#x2044;" horiz-adv-x="366" d="M-301 8l1081 1589l127 -69l-1079 -1591z" />
<glyph unicode="&#x2047;" horiz-adv-x="1994" d="M1239 1143q20 184 169.5 313t336.5 129q188 0 293.5 -126t76.5 -314q-25 -152 -135.5 -270.5t-261.5 -151.5l-47 -197h-287l64 408q33 -8 73 -8q109 0 195 61.5t102 167.5q12 68 -17.5 124t-95 56t-108.5 -50t-55 -118l-4 -24h-299zM1288 143.5q12 75.5 73.5 128 t137.5 52.5t121 -52.5t32.5 -128t-74 -130t-137 -54.5t-120.5 54.5t-33 130zM242 1143q20 184 169.5 313t336.5 129q188 0 293.5 -126t76.5 -314q-25 -152 -135.5 -270.5t-261.5 -151.5l-47 -197h-287l64 408q33 -8 73 -8q109 0 195 61.5t102 167.5q12 68 -17.5 124t-95 56 t-108.5 -50t-55 -118l-4 -24h-299zM291 143.5q12 75.5 73.5 128t137.5 52.5t121 -52.5t32.5 -128t-74 -130t-137 -54.5t-120.5 54.5t-33 130z" />
<glyph unicode="&#x2048;" horiz-adv-x="1662" d="M1169 143.5q12 75.5 73.5 128t137.5 52.5t121 -52.5t32.5 -128t-74 -130t-137 -54.5t-120.5 54.5t-33 130zM1253 444l174 1100h291l-174 -1100h-291zM242 1143q20 184 169.5 313t336.5 129q188 0 293.5 -126t76.5 -314q-25 -152 -135.5 -270.5t-261.5 -151.5l-47 -197 h-287l64 408q33 -8 73 -8q109 0 195 61.5t102 167.5q12 68 -17.5 124t-95 56t-108.5 -50t-55 -118l-4 -24h-299zM291 143.5q12 75.5 73.5 128t137.5 52.5t121 -52.5t32.5 -128t-74 -130t-137 -54.5t-120.5 54.5t-33 130z" />
<glyph unicode="&#x2049;" horiz-adv-x="1662" d="M908 1143q20 184 169.5 313t336.5 129q188 0 293.5 -126t76.5 -314q-25 -152 -135.5 -270.5t-261.5 -151.5l-47 -197h-287l64 408q33 -8 73 -8q109 0 195 61.5t102 167.5q12 68 -17.5 124t-95 56t-108.5 -50t-55 -118l-4 -24h-299zM957 143.5q12 75.5 73.5 128 t137.5 52.5t121 -52.5t32.5 -128t-74 -130t-137 -54.5t-120.5 54.5t-33 130zM172 143.5q12 75.5 73.5 128t137.5 52.5t121 -52.5t32.5 -128t-74 -130t-137 -54.5t-120.5 54.5t-33 130zM256 444l174 1100h291l-174 -1100h-291z" />
<glyph unicode="&#x2057;" horiz-adv-x="2424" d="M2173 872l70 672h246l-144 -672h-172zM1566 872l70 672h246l-144 -672h-172zM960 872l70 672h246l-144 -672h-172zM354 872l70 672h246l-144 -672h-172z" />
<glyph unicode="&#x205f;" horiz-adv-x="512" />
<glyph unicode="&#x2060;" horiz-adv-x="0" />
<glyph unicode="&#x20a8;" horiz-adv-x="1982" d="M1204 135l160 170q86 -117 195 -117q49 0 86 30t45 79q4 25 -2 44t-28.5 35.5t-38 25t-53.5 23.5t-54 24q-88 41 -132 98q-32 42 -32 111q0 26 4 55q23 141 126 233t245 92q86 0 172 -26.5t135 -77.5l-150 -166q-61 70 -139 70q-37 0 -69.5 -26t-38.5 -60q-4 -20 4 -38 t29.5 -31t41 -22.5t54 -23.5t55.5 -25q88 -41 134 -105q33 -46 33 -120q0 -30 -5 -63q-25 -162 -155 -259.5t-294 -97.5q-215 0 -328 168zM111 0l243 1544h408q242 0 361 -113q90 -86 91 -243q0 -51 -10 -109q-25 -158 -128 -280.5t-255 -147.5l334 -651h-364l-277 623h-4 l-98 -623h-301zM543 834h39q137 0 218 52t103 185q5 32 5 58q0 84 -49 121q-65 48 -202 48h-41z" />
<glyph unicode="&#x20ac;" d="M121 500l100 209h86q0 29 6 71q2 12 8.5 35t6.5 27h-154l100 209h105q170 532 637 532q106 0 191 -22.5t124 -51.5l-43 -266q-86 86 -270 86q-266 0 -354 -278h526l-103 -209h-481q-6 -27 -12 -62q-8 -49 -8 -71h434l-102 -209h-340q-2 -289 264 -289q186 0 297 88 l-43 -272q-111 -66 -336 -66q-469 0 -463 539h-176z" />
<glyph unicode="&#x2122;" horiz-adv-x="2048" d="M307 1391l23 153h696l-22 -153h-261l-112 -709h-176l112 709h-260zM1049 682l135 862h305l113 -563h4l297 563h303l-135 -862h-177l109 686h-4l-359 -686h-170l-133 686h-4l-108 -686h-176z" />
<glyph unicode="&#x2202;" horiz-adv-x="1224" d="M162 498q43 266 202.5 427.5t354.5 161.5q113 0 184.5 -56t97.5 -116h3q2 10 7 39t7 37q35 221 -41 381t-234 160q-154 0 -294 -107l-41 205q180 127 405 127q248 0 382 -221t69 -631q-68 -430 -265.5 -683t-478.5 -253q-141 0 -231 82t-118.5 199t-8.5 248zM424 487 q-20 -125 22.5 -207.5t133.5 -82.5h2q113 0 213 148.5t147 338.5q-10 66 -64.5 125t-142.5 59q-109 0 -197.5 -113.5t-113.5 -267.5z" />
<glyph unicode="&#x2206;" horiz-adv-x="1394" d="M59 0l25 160l717 1442h315l246 -1436l-27 -166h-1276zM365 219h722l-129 666q-6 55 -28.5 204.5t-26.5 202.5h-6q-16 -41 -80.5 -177t-91.5 -197z" />
<glyph unicode="&#x220f;" horiz-adv-x="1789" d="M305 1317v250h1430v-250h-215v-1534h-269v1534h-465v-1534h-268v1534h-213z" />
<glyph unicode="&#x2211;" horiz-adv-x="1435" d="M301 -37l516 715l-498 696v193h1043v-232h-686v-6l444 -604l-493 -678v-8h770v-256h-1096v180z" />
<glyph unicode="&#x221a;" horiz-adv-x="1521" d="M322 766l366 145l219 -706l41 -197l4 -2q14 104 33 211l365 1665h186l-479 -2193h-215l-316 983l-159 -62z" />
<glyph unicode="&#x221e;" horiz-adv-x="1857" d="M264 637q0 164 103.5 268.5t259.5 104.5q115 0 207 -62.5t186 -181.5q45 51 59.5 67.5t61.5 60.5t79.5 62.5t86 36t108.5 17.5q145 0 241.5 -100.5t96.5 -260.5v-2q0 -170 -104.5 -274.5t-245.5 -104.5q-203 0 -391 248q-98 -121 -190.5 -184.5t-213.5 -63.5 q-139 0 -241.5 104.5t-102.5 264.5zM420 633q0 -88 59.5 -151.5t147.5 -63.5h4q57 0 116.5 37t92 71.5t90.5 102.5q-104 139 -154 178q-72 57 -155 57q-92 0 -146.5 -65.5t-54.5 -165.5zM1096 643q102 -129 166.5 -177t144.5 -48q86 0 139 68.5t53 148.5q0 100 -55 164.5 t-143 64.5h-4q-33 0 -66 -12t-55.5 -26.5t-54 -43t-46 -45t-44 -51.5t-35.5 -43z" />
<glyph unicode="&#x222b;" horiz-adv-x="1114" d="M301 -350l35 196q57 -23 92 -22q61 0 92 45q59 86 60 350q0 207 -16.5 565.5t-16.5 546.5q0 195 29.5 311.5t99.5 192.5q90 102 252 102q76 0 133 -26l-29 -189q-37 18 -76 19q-70 0 -106 -58q-59 -78 -59 -378q0 -178 15 -527.5t15 -554.5q0 -305 -80 -450 q-78 -158 -276 -158q-98 0 -164 35z" />
<glyph unicode="&#x2248;" horiz-adv-x="1337" d="M242 373q49 100 132 162.5t179 62.5q25 0 50.5 -4t42 -8t42 -16.5t32.5 -16.5t34 -21l26 -14q12 -6 39 -23.5t39 -23.5t32.5 -15.5t38 -13.5t38.5 -4q57 0 99 38t91 120l96 -86q-113 -227 -290 -227q-94 0 -240 86q-115 76 -184 75q-45 0 -85 -26.5t-59.5 -53 t-54.5 -79.5zM242 778q49 100 132 163t179 63q25 0 50.5 -4.5t43 -9.5t41 -16t33.5 -17.5t31.5 -19.5t27.5 -15q6 -4 26.5 -16.5t27 -15.5t21.5 -12.5t23.5 -12.5t21.5 -8t22.5 -7t20.5 -4t24 -2q59 0 101 39t89 118l96 -86q-49 -102 -124.5 -164.5t-163.5 -62.5 q-61 0 -112.5 19.5t-129.5 68.5q-115 74 -184 74q-45 0 -85 -26.5t-59.5 -52.5t-54.5 -79z" />
<glyph unicode="&#x2260;" horiz-adv-x="1368" d="M293 330v157h350l127 297h-477v160h534l105 242l125 -49l-84 -193h291v-160h-351l-127 -297h478v-157h-537l-106 -246l-123 49l86 197h-291z" />
<glyph unicode="&#x2264;" horiz-adv-x="1398" d="M326 -23v162h972v-162h-972zM334 713v172l954 491v-188l-799 -385v-6l799 -387v-189z" />
<glyph unicode="&#x2265;" horiz-adv-x="1398" d="M328 -23v162h966v-162h-966zM338 1188v188l954 -491v-172l-952 -492v189l797 387v6z" />
<glyph unicode="&#x25ca;" horiz-adv-x="1519" d="M360 782l424 891h217l412 -891l-424 -888h-217zM600 788l244 -540q25 -66 37 -131h10q12 70 37 127l246 532l-240 533q-27 72 -41 139h-8q-10 -55 -41 -139z" />
<glyph unicode="&#xe000;" horiz-adv-x="1004" d="M0 1005h1005v-1005h-1005v1005z" />
<glyph unicode="&#xfb01;" horiz-adv-x="1114" d="M113 0l120 764h-96l39 242h96l47 294q33 203 144.5 332t306.5 129q74 0 133 -32l-41 -256q-66 35 -110 34q-27 0 -48.5 -8t-36 -27.5t-24.5 -34t-18 -46.5l-12 -45q-3 -12 -9 -48t-6 -38l-39 -254h229l-38 -242h-230l-121 -764h-286zM711 0l159 1006h287l-160 -1006h-286 zM909 1427q12 70 70.5 120t128.5 50t112 -50t29 -120q-10 -70 -67.5 -120t-128.5 -50q-70 0 -112 49t-32 121z" />
<glyph unicode="&#xfb02;" horiz-adv-x="1112" d="M113 0l120 764h-96l39 242h96l47 294q33 203 144.5 332t306.5 129q74 0 133 -32l-41 -256q-66 35 -110 34q-27 0 -48.5 -8t-36 -27.5t-24.5 -34t-18 -46.5l-12 -45q-3 -12 -9 -48t-6 -38l-39 -254h229l-38 -242h-230l-121 -764h-286zM723 0l274 1737h287l-274 -1737h-287 z" />
</font>
</defs>
</svg>
